<?xml version="1.0" standalone="no"?><!-- Generator: Gravit.io --><svg xmlns="http://www.w3.org/2000/svg" xmlns:xlink="http://www.w3.org/1999/xlink" style="isolation:isolate" viewBox="0 0 1000 450" width="1000" height="450"><defs><clipPath id="_clipPath_Ms6NFQBaNHF73Dn3vBk0dVB2fXRfZQz7"><rect width="1000" height="450"/></clipPath></defs><g clip-path="url(#_clipPath_Ms6NFQBaNHF73Dn3vBk0dVB2fXRfZQz7)"><rect width="1000" height="450" style="fill:rgb(0,0,0)"/><g id="Group"><path d="M 88.07 217.882 L 286.93 217.882 C 292.488 217.882 297 222.394 297 227.952 L 297 313.812 C 297 319.37 292.488 323.882 286.93 323.882 L 88.07 323.882 C 82.512 323.882 78 319.37 78 313.812 L 78 227.952 C 78 222.394 82.512 217.882 88.07 217.882 Z" style="stroke:none;fill:#009688;stroke-miterlimit:10;"/><path d="M 400.57 217.882 L 599.43 217.882 C 604.988 217.882 609.5 222.394 609.5 227.952 L 609.5 313.812 C 609.5 319.37 604.988 323.882 599.43 323.882 L 400.57 323.882 C 395.012 323.882 390.5 319.37 390.5 313.812 L 390.5 227.952 C 390.5 222.394 395.012 217.882 400.57 217.882 Z" style="stroke:none;fill:#07796E;stroke-miterlimit:10;"/><path d="M 713.07 217.882 L 911.93 217.882 C 917.488 217.882 922 222.394 922 227.952 L 922 313.812 C 922 319.37 917.488 323.882 911.93 323.882 L 713.07 323.882 C 707.512 323.882 703 319.37 703 313.812 L 703 227.952 C 703 222.394 707.512 217.882 713.07 217.882 Z" style="stroke:none;fill:#01665C;stroke-miterlimit:10;"/><g transform="matrix(1,0,0,1,161,257.264)"><text transform="matrix(1,0,0,1,0,21.377)" style="font-family:&quot;Open Sans&quot;;font-weight:800;font-size:20px;font-style:normal;fill:#ffffff;stroke:none;">View</text></g><g transform="matrix(1,0,0,1,446,257.264)"><text transform="matrix(1,0,0,1,0,21.377)" style="font-family:&quot;Open Sans&quot;;font-weight:800;font-size:20px;font-style:normal;fill:#ffffff;stroke:none;">Controller</text></g><g transform="matrix(1,0,0,1,774,257.264)"><text transform="matrix(1,0,0,1,0,21.377)" style="font-family:&quot;Open Sans&quot;;font-weight:800;font-size:20px;font-style:normal;fill:#ffffff;stroke:none;">Models</text></g><g transform="matrix(1,0,0,1,374.708,81.882)"><text transform="matrix(1,0,0,1,0,50.236)" style="font-family:&quot;Open Sans&quot;;font-weight:400;font-size:47px;font-style:normal;fill:#000000;stroke:none;">MVC FLOW</text></g><g id="Group"><line x1="305.377" y1="252.319" x2="390.5" y2="252.319" vector-effect="non-scaling-stroke" stroke-width="4.934" stroke="rgb(0,0,0)" stroke-linejoin="miter" stroke-linecap="butt" stroke-miterlimit="10"/><path d=" M 326.715 242.882 L 303.5 252.319 L 326.715 261.757" fill="none" vector-effect="non-scaling-stroke" stroke-width="4.934" stroke="rgb(0,0,0)" stroke-linejoin="miter" stroke-linecap="butt" stroke-miterlimit="10"/></g><g id="Group"><line x1="617.877" y1="252.319" x2="703" y2="252.319" vector-effect="non-scaling-stroke" stroke-width="4.934" stroke="rgb(0,0,0)" stroke-linejoin="miter" stroke-linecap="butt" stroke-miterlimit="10"/><path d=" M 639.215 242.882 L 616 252.319 L 639.215 261.757" fill="none" vector-effect="non-scaling-stroke" stroke-width="4.934" stroke="rgb(0,0,0)" stroke-linejoin="miter" stroke-linecap="butt" stroke-miterlimit="10"/></g><g id="Group"><line x1="382.123" y1="289.319" x2="297" y2="289.319" vector-effect="non-scaling-stroke" stroke-width="4.934" stroke="rgb(0,0,0)" stroke-linejoin="miter" stroke-linecap="butt" stroke-miterlimit="10"/><path d=" M 360.785 279.882 L 384 289.319 L 360.785 298.757" fill="none" vector-effect="non-scaling-stroke" stroke-width="4.934" stroke="rgb(0,0,0)" stroke-linejoin="miter" stroke-linecap="butt" stroke-miterlimit="10"/></g><g id="Group"><line x1="694.623" y1="289.319" x2="609.5" y2="289.319" vector-effect="non-scaling-stroke" stroke-width="4.934" stroke="rgb(0,0,0)" stroke-linejoin="miter" stroke-linecap="butt" stroke-miterlimit="10"/><path d=" M 673.285 279.882 L 696.5 289.319 L 673.285 298.757" fill="none" vector-effect="non-scaling-stroke" stroke-width="4.934" stroke="rgb(0,0,0)" stroke-linejoin="miter" stroke-linecap="butt" stroke-miterlimit="10"/></g><g transform="matrix(1,0,0,1,149.5,340.882)"><text transform="matrix(1,0,0,1,0,21.377)" style="font-family:&quot;Open Sans&quot;;font-weight:400;font-size:20px;font-style:normal;fill:#000000;stroke:none;">UI Logic</text></g><g transform="matrix(1,0,0,1,399,340.882)"><text transform="matrix(1,0,0,1,0,21.377)" style="font-family:&quot;Open Sans&quot;;font-weight:400;font-size:20px;font-style:normal;fill:#000000;stroke:none;">Request &amp; Relay Data</text></g><g transform="matrix(1,0,0,1,743.5,340.882)"><text transform="matrix(1,0,0,1,0,21.377)" style="font-family:&quot;Open Sans&quot;;font-weight:400;font-size:20px;font-style:normal;fill:#000000;stroke:none;">Business Logic</text></g></g></g></svg>